<svg width="50" height="50" viewBox="0 0 50 50" fill="none" xmlns="http://www.w3.org/2000/svg">
<g clip-path="url(#clip0_48_2)">
<path d="M11.685 9.715C13.005 9.89833 14.2333 10.3383 15.37 11.035C16.5067 11.7317 17.5517 12.5567 18.505 13.51V41.835H11.685V9.715ZM33.465 8.505C34.235 9.12833 34.8583 10.045 35.335 11.255C35.8483 12.465 36.105 13.73 36.105 15.05C36.105 16.48 35.885 17.8917 35.445 19.285C35.005 20.6417 34.3633 21.87 33.52 22.97C32.6767 24.0333 31.6133 24.895 30.33 25.555C29.0833 26.1783 27.6167 26.49 25.93 26.49C25.82 26.49 25.5817 26.49 25.215 26.49C24.885 26.49 24.5183 26.4717 24.115 26.435C23.7117 26.3617 23.345 26.2883 23.015 26.215C22.7217 26.105 22.575 25.9583 22.575 25.775V19.67C22.575 19.78 22.6667 19.8717 22.85 19.945C23.0333 20.0183 23.235 20.0917 23.455 20.165C23.7117 20.2383 23.9683 20.3117 24.225 20.385C24.4817 20.4217 24.6833 20.44 24.83 20.44C25.6 20.5133 26.315 20.44 26.975 20.22C27.6717 19.9633 28.2767 19.5967 28.79 19.12C29.34 18.6433 29.7617 18.0933 30.055 17.47C30.3483 16.81 30.495 16.1317 30.495 15.435C30.495 14.1517 29.9633 13.015 28.9 12.025C27.8733 11.035 26.425 10.54 24.555 10.54C23.8217 10.54 23.1617 10.65 22.575 10.87C22.465 10.87 22.245 10.925 21.915 11.035C21.585 11.145 21.2367 11.2917 20.87 11.475C20.54 11.6217 20.2283 11.7867 19.935 11.97C19.6417 12.1167 19.495 12.245 19.495 12.355C19.495 12.355 19.5133 12.3733 19.55 12.41C19.1833 12.0433 18.725 11.6583 18.175 11.255C17.6617 10.815 17.0933 10.4117 16.47 10.045C15.8833 9.67833 15.26 9.36667 14.6 9.11C13.9767 8.81667 13.39 8.615 12.84 8.505C13.39 7.955 14.0683 7.46 14.875 7.02C15.6817 6.54333 16.5433 6.14 17.46 5.81C18.4133 5.48 19.4033 5.24166 20.43 5.095C21.4567 4.91166 22.4833 4.82 23.51 4.82C25.3433 4.82 27.1217 5.11333 28.845 5.7C30.605 6.25 32.145 7.185 33.465 8.505ZM38.525 40.24C38.5983 40.3133 38.7267 40.46 38.91 40.68C39.0933 40.9 39.3133 41.12 39.57 41.34C39.8267 41.5967 40.1383 41.89 40.505 42.22H33.85C33.1167 41.6333 32.4383 41.0467 31.815 40.46C31.2283 39.8733 30.7883 39.195 30.495 38.425C30.165 37.4717 29.945 36.61 29.835 35.84C29.7617 35.0333 29.725 34.245 29.725 33.475C29.725 32.705 29.615 31.8983 29.395 31.055C29.175 30.2117 28.7717 29.5883 28.185 29.185C28.0017 29.0017 27.7817 28.855 27.525 28.745C27.2683 28.5983 26.9933 28.3783 26.7 28.085C29.0467 28.085 31.1917 27.315 33.135 25.775C33.905 26.2883 34.51 26.9117 34.95 27.645C35.39 28.3417 35.72 29.1117 35.94 29.955C36.16 30.7617 36.3067 31.605 36.38 32.485C36.4533 33.3283 36.49 34.1533 36.49 34.96C36.49 35.5467 36.5267 36.06 36.6 36.5C36.6733 36.9033 36.7833 37.3067 36.93 37.71C37.1133 38.0767 37.3333 38.4617 37.59 38.865C37.8467 39.2683 38.1583 39.7267 38.525 40.24Z" fill="url(#paint0_linear_48_2)"/>
</g>
<defs>
<linearGradient id="paint0_linear_48_2" x1="25" y1="1" x2="25" y2="56" gradientUnits="userSpaceOnUse">
<stop offset="0.3875" stop-color="#2275CB"/>
<stop offset="1" stop-opacity="0"/>
</linearGradient>
<clipPath id="clip0_48_2">
<rect width="50" height="50" fill="white"/>
</clipPath>
</defs>
</svg>
